<svg width="28" height="29" viewBox="0 0 28 29" fill="none" xmlns="http://www.w3.org/2000/svg">
<path d="M1.46189 0.0587575C0.880091 -0.140158 0.251224 0.182337 0.0572814 0.779069C-0.136646 1.3758 0.177787 2.02079 0.759585 2.21969L1.15181 2.3538C2.1533 2.69617 2.81542 2.92436 3.3032 3.1571C3.76508 3.37747 3.96478 3.55484 4.09274 3.73691C4.22069 3.91899 4.32159 4.16938 4.37936 4.68848C4.4404 5.2367 4.44207 5.95311 4.44207 7.03584V11.0932C4.44204 13.1699 4.44202 14.8438 4.6146 16.1604C4.79377 17.5272 5.17709 18.6781 6.06828 19.5922C6.95947 20.5062 8.08157 20.8993 9.41426 21.0831C10.6979 21.2601 12.33 21.2601 14.3548 21.2601H24.8002C25.4135 21.2601 25.9106 20.7502 25.9106 20.1212C25.9106 19.4921 25.4135 18.9823 24.8002 18.9823H14.4361C12.3108 18.9823 10.8286 18.9799 9.71019 18.8256C8.62378 18.6759 8.04846 18.4018 7.63868 17.9816C7.29047 17.6244 7.04523 17.1446 6.88978 16.3248H21.8716C23.2922 16.3248 24.0025 16.3248 24.5587 15.9485C25.115 15.5724 25.3947 14.9029 25.9543 13.5637L26.5888 12.0451C27.7873 9.17685 28.3866 7.74271 27.7284 6.71879C27.0701 5.69489 25.5488 5.69489 22.5062 5.69489H6.65564C6.64691 5.22765 6.62778 4.8061 6.58592 4.43012C6.50397 3.69389 6.32541 3.01835 5.89441 2.40503C5.46341 1.79173 4.89503 1.40436 4.23997 1.0918C3.62369 0.797762 2.83998 0.529859 1.91257 0.21283L1.46189 0.0587575Z" fill="#383838" fill-opacity="0.75"/>
<path d="M9.25369 23.9177C10.4803 23.9177 11.4746 24.9375 11.4746 26.1955C11.4746 27.4535 10.4803 28.4733 9.25369 28.4733C8.02713 28.4733 7.03281 27.4535 7.03281 26.1955C7.03281 24.9375 8.02713 23.9177 9.25369 23.9177Z" fill="#383838" fill-opacity="0.75"/>
<path d="M22.579 23.9177C23.8055 23.9177 24.7999 24.9374 24.7999 26.1956C24.7999 27.4535 23.8055 28.4734 22.579 28.4734C21.3525 28.4734 20.3581 27.4535 20.3581 26.1956C20.3581 24.9374 21.3525 23.9177 22.579 23.9177Z" fill="#383838" fill-opacity="0.75"/>
</svg>
