<svg width="25" height="26" viewBox="0 0 25 26" fill="none" xmlns="http://www.w3.org/2000/svg">
<path d="M16.2694 7.77176C17.4987 7.71186 17.6878 9.72602 16.3387 9.54951C15.2198 9.51798 15.0779 7.80329 16.2694 7.77176Z" fill="white"/>
<path d="M20.2976 12.5691C20.3954 5.36041 17.5081 4.42741 10.9235 4.82771C6.38778 4.47784 4.60687 7.91355 4.59428 11.9765C4.34843 15.9544 5.57455 20.9818 10.5264 20.5594C16.7075 20.4491 20.5845 19.8219 20.2976 12.5691ZM9.48936 0.162733C16.5688 -0.496039 24.764 0.518912 24.8618 9.37924C25.1108 13.4579 25.2432 17.8298 23.2448 21.5303C21.1171 25.1488 17.5711 24.9975 13.8833 25.0826C10.6398 25.2118 7.29556 25.4924 4.16876 24.4301C0.982065 23.3269 0.115256 20.9219 0.184602 17.7762C0.0742819 15.0686 -0.0360411 12.3674 0.0112415 9.65661C0.168841 3.23278 2.97414 0.0145889 9.48936 0.162733Z" fill="#292929"/>
<path d="M10.9235 4.8277C17.5081 4.4274 20.3922 5.36039 20.2976 12.5691C20.5844 19.8218 16.7074 20.446 10.5295 20.5594C5.57452 20.9818 4.35155 15.9512 4.5974 11.9765C4.60687 7.91353 6.38774 4.47783 10.9235 4.8277ZM18.9107 12.796C18.9107 8.33277 18.3623 5.96873 13.2938 6.19568C11.7871 6.34382 10.0252 6.12003 8.51221 6.63382C5.47365 8.11842 5.89289 12.2003 6.17342 15.0308C6.44764 19.6044 10.2395 19.4688 13.7887 18.9582C18.1479 18.7281 18.9517 16.8463 18.9107 12.796Z" fill="white"/>
<path d="M12.985 9.86782C9.77629 9.70393 8.78658 14.9898 12.3074 15.1317C15.617 15.0529 16.1245 10.8103 12.985 9.86782ZM12.3137 8.65429C17.8549 8.2792 17.5145 16.4682 12.2885 16.4114C7.33664 16.2601 7.8 9.09559 12.3137 8.65429Z" fill="white"/>
<path d="M12.3105 15.1317C8.78965 14.9867 9.77623 9.70078 12.9881 9.86783C16.1244 10.8103 15.6169 15.0529 12.3105 15.1317Z" fill="#292929"/>
<path d="M13.2939 6.19572C18.3623 5.96562 18.9139 8.33278 18.9107 12.796C18.9486 16.8464 18.148 18.7281 13.7887 18.9582C10.2396 19.4689 6.44768 19.6044 6.17345 15.0308C5.89292 12.1972 5.47684 8.11843 8.51224 6.63383C10.0252 6.12007 11.7872 6.34386 13.2939 6.19572ZM12.2915 16.4114C17.5144 16.4681 17.858 8.27919 12.3167 8.65428C7.79988 9.09558 7.33655 16.2601 12.2915 16.4114ZM16.3387 9.54947C17.6878 9.72598 17.4986 7.71497 16.2694 7.77171C15.0779 7.80324 15.2198 9.51794 16.3387 9.54947Z" fill="#292929"/>
</svg>
