<svg width="20" height="25" viewBox="0 0 20 25" fill="none" xmlns="http://www.w3.org/2000/svg">
<path fill-rule="evenodd" clip-rule="evenodd" d="M5.38462 11.5385C5.38462 11.1138 5.72923 10.7692 6.15385 10.7692C6.57846 10.7692 6.92308 11.1138 6.92308 11.5385V20.7692C6.92308 21.1946 6.57846 21.5385 6.15385 21.5385C5.72923 21.5385 5.38462 21.1946 5.38462 20.7692V11.5385ZM9.23077 11.5385C9.23077 11.1138 9.57539 10.7692 10 10.7692C10.4246 10.7692 10.7692 11.1138 10.7692 11.5385V20.7692C10.7692 21.1946 10.4246 21.5385 10 21.5385C9.57539 21.5385 9.23077 21.1946 9.23077 20.7692V11.5385ZM13.0769 11.5385C13.0769 11.1138 13.4215 10.7692 13.8462 10.7692C14.2708 10.7692 14.6154 11.1138 14.6154 11.5385V20.7692C14.6154 21.1946 14.2708 21.5385 13.8462 21.5385C13.4215 21.5385 13.0769 21.1946 13.0769 20.7692V11.5385ZM1.53846 21.5385C1.53846 23.2377 2.91615 24.6154 4.61538 24.6154H15.3846C17.0838 24.6154 18.4615 23.2377 18.4615 21.5385V9.23077H1.53846V21.5385ZM12.3077 3.07692H7.69231V2.30769C7.69231 1.88231 8.03692 1.53846 8.46154 1.53846H11.5385C11.9631 1.53846 12.3077 1.88231 12.3077 2.30769V3.07692ZM18.4615 3.07692H13.8462V1.53846C13.8462 0.689231 13.1569 0 12.3077 0H7.69231C6.84308 0 6.15385 0.689231 6.15385 1.53846V3.07692H1.53846C0.689231 3.07692 0 3.76615 0 4.61538V6.15385C0 7.00308 0.688456 7.69154 1.53769 7.69231H18.4631C19.3116 7.69154 20 7.00308 20 6.15385V4.61538C20 3.76615 19.3108 3.07692 18.4615 3.07692Z" fill="#383838"/>
</svg>
