<svg width="25" height="25" viewBox="0 0 25 25" fill="none" xmlns="http://www.w3.org/2000/svg">
<path d="M25 12.5C25 19.4035 19.4035 25 12.5 25C5.59644 25 0 19.4035 0 12.5C0 5.59644 5.59644 0 12.5 0C19.4035 0 25 5.59644 25 12.5Z" fill="#FF5756"/>
<path fill-rule="evenodd" clip-rule="evenodd" d="M12.5 6.56226C13.0178 6.56226 13.4375 6.98199 13.4375 7.49976V12.1114L16.2879 14.9619C16.654 15.328 16.654 15.9215 16.2879 16.2876C15.9218 16.6538 15.3282 16.6538 14.9621 16.2876L11.8371 13.1626C11.6612 12.9869 11.5625 12.7484 11.5625 12.4998V7.49976C11.5625 6.98199 11.9822 6.56226 12.5 6.56226Z" fill="white"/>
</svg>
