<svg width="25" height="24" viewBox="0 0 25 24" fill="none" xmlns="http://www.w3.org/2000/svg">
<path d="M17.4391 15.1475L16.8065 15.7764C16.8065 15.7764 15.3029 17.2715 11.1987 13.1905C7.0946 9.10972 8.59818 7.61467 8.59818 7.61467L8.99652 7.21857C9.9779 6.24282 10.0704 4.67625 9.21416 3.5326L7.46285 1.19316C6.40316 -0.222338 4.35549 -0.409324 3.1409 0.79837L0.960899 2.96599C0.35865 3.56483 -0.044933 4.34109 0.00401138 5.20223C0.12922 7.40529 1.12598 12.1454 6.68799 17.6758C12.5862 23.5405 18.1205 23.7736 20.3837 23.5626C21.0996 23.4959 21.7221 23.1314 22.2237 22.6325L24.1968 20.6708C25.5286 19.3465 25.153 17.0762 23.449 16.15L20.7955 14.7075C19.6766 14.0993 18.3136 14.2779 17.4391 15.1475Z" fill="#FF5756"/>
</svg>
