<svg width="25" height="25" viewBox="0 0 25 25" fill="none" xmlns="http://www.w3.org/2000/svg">
<path d="M21.125 12.5C21.125 7.73654 17.2635 3.875 12.5 3.875C7.73654 3.875 3.875 7.73654 3.875 12.5C3.875 17.2635 7.73654 21.125 12.5 21.125C17.2635 21.125 21.125 17.2635 21.125 12.5Z" fill="#373737" fill-opacity="0.25"/>
<path d="M8.36226 8.37165C8.0394 8.69451 8.0394 9.21796 8.36226 9.54082L11.3262 12.5047L8.36226 15.4687C8.0394 15.7915 8.0394 16.315 8.36226 16.6378C8.68511 16.9606 9.20857 16.9606 9.53142 16.6378L12.4953 13.6739L15.4593 16.6378C15.7821 16.9606 16.3056 16.9606 16.6284 16.6378C16.9512 16.315 16.9512 15.7915 16.6284 15.4687L13.6645 12.5047L16.6284 9.54083C16.9512 9.21798 16.9512 8.69452 16.6284 8.37167C16.3055 8.04881 15.7821 8.04881 15.4593 8.37167L12.4953 11.3356L9.53142 8.37165C9.20857 8.0488 8.68511 8.0488 8.36226 8.37165Z" fill="#292929"/>
</svg>
