<svg width="20" height="20" viewBox="0 0 20 20" fill="none" xmlns="http://www.w3.org/2000/svg">
<path d="M3.3335 4.16667H5.8335M11.6668 4.16667H16.6668M11.6668 4.16667C11.6668 3.24619 10.9207 2.5 10.0002 2.5C9.07966 2.5 8.3335 3.24619 8.3335 4.16667C8.3335 5.08714 9.07966 5.83333 10.0002 5.83333C10.9207 5.83333 11.6668 5.08714 11.6668 4.16667ZM8.3335 10H13.3335M13.3335 10C13.3335 10.9205 14.0797 11.6667 15.0002 11.6667C15.9207 11.6667 16.6668 10.9205 16.6668 10C16.6668 9.0795 15.9207 8.33333 15.0002 8.33333C14.0797 8.33333 13.3335 9.0795 13.3335 10ZM3.3335 10H5.8335M9.16683 15.8333H16.6668M5.00016 14.1667C5.92064 14.1667 6.66683 14.9128 6.66683 15.8333C6.66683 16.7538 5.92064 17.5 5.00016 17.5C4.07969 17.5 3.3335 16.7538 3.3335 15.8333C3.3335 14.9128 4.07969 14.1667 5.00016 14.1667Z" stroke="#292929" stroke-width="1.5" stroke-linecap="round"/>
</svg>
