<svg width="17" height="17" viewBox="0 0 17 17" fill="none" xmlns="http://www.w3.org/2000/svg">
<path d="M17 8.5C17 13.1944 13.1944 17 8.5 17C3.80558 17 0 13.1944 0 8.5C0 3.80558 3.80558 0 8.5 0C13.1944 0 17 3.80558 17 8.5Z" fill="#292929"/>
<path fill-rule="evenodd" clip-rule="evenodd" d="M8.50002 4.46249C8.85209 4.46249 9.13752 4.74792 9.13752 5.09999V8.2359L11.0758 10.1742C11.3247 10.4232 11.3247 10.8268 11.0758 11.0757C10.8268 11.3247 10.4232 11.3247 10.1743 11.0757L8.04926 8.95075C7.92967 8.83124 7.86252 8.66906 7.86252 8.49999V5.09999C7.86252 4.74792 8.14795 4.46249 8.50002 4.46249Z" fill="white"/>
</svg>
