<svg width="16" height="16" viewBox="0 0 16 16" fill="none" xmlns="http://www.w3.org/2000/svg">
<g clip-path="url(#clip0_101_491)">
<path d="M8 10.6667V5.33334" stroke="#373737" stroke-width="1.5" stroke-linecap="round"/>
<path d="M5.33337 9.33335V6.66669" stroke="#373737" stroke-width="1.5" stroke-linecap="round"/>
<path d="M10.6667 9.33335V6.66669" stroke="#373737" stroke-width="1.5" stroke-linecap="round"/>
<path d="M11.3334 2.22522C10.3528 1.65799 9.21431 1.33334 8.00004 1.33334C4.31814 1.33334 1.33337 4.31811 1.33337 8.00001C1.33337 9.06648 1.58379 10.0744 2.02901 10.9683C2.14733 11.2059 2.18671 11.4774 2.11812 11.7337L1.72105 13.2178C1.54867 13.862 2.13805 14.4513 2.78227 14.279L4.2663 13.8819C4.52266 13.8133 4.79418 13.8527 5.03173 13.971C5.92562 14.4163 6.93357 14.6667 8.00004 14.6667C11.6819 14.6667 14.6667 11.6819 14.6667 8.00001C14.6667 6.78574 14.342 5.64726 13.7748 4.66668" stroke="#373737" stroke-width="1.5" stroke-linecap="round"/>
</g>
<defs>
<clipPath id="clip0_101_491">
<rect width="16" height="16" fill="white"/>
</clipPath>
</defs>
</svg>
