<svg width="34" height="33" viewBox="0 0 34 33" fill="none" xmlns="http://www.w3.org/2000/svg">
<path d="M2 12.8413C2 12.0668 2 11.6796 2.06405 11.3576C2.32707 10.0353 3.36073 9.00166 4.68303 8.73864C5.00503 8.67459 5.39223 8.67459 6.16667 8.67459H17H27.8333C28.6078 8.67459 28.995 8.67459 29.317 8.73864C30.6393 9.00166 31.673 10.0353 31.936 11.3576C32 11.6796 32 12.0668 32 12.8413C32 13.6157 32 14.0029 31.936 14.3249C31.673 15.6473 30.6393 16.6809 29.317 16.9439C28.995 17.0079 28.6078 17.0079 27.8333 17.0079H17H6.16667C5.39223 17.0079 5.00503 17.0079 4.68303 16.9439C3.36073 16.6809 2.32707 15.6473 2.06405 14.3249C2 14.0029 2 13.6157 2 12.8413Z" stroke="#292929" stroke-width="4" stroke-linejoin="round"/>
<path d="M3.66669 17.0079V23.6746C3.66669 26.8173 3.66669 28.3886 4.643 29.3649C5.6193 30.3413 7.19065 30.3413 10.3334 30.3413H12H22H23.6667C26.8094 30.3413 28.3807 30.3413 29.357 29.3649C30.3334 28.3886 30.3334 26.8173 30.3334 23.6746V17.0079" stroke="#292929" stroke-width="4" stroke-linecap="round" stroke-linejoin="round"/>
<path d="M17 8.67459V30.3413" stroke="#292929" stroke-width="4" stroke-linecap="round" stroke-linejoin="round"/>
<path d="M15.9589 7.37315L12.6599 3.24939C11.4188 1.69804 9.10176 1.5729 7.69694 2.97772C5.59706 5.0776 7.07776 8.6746 10.0474 8.6746H15.3334C16.0051 8.6746 16.3786 7.89765 15.9589 7.37315Z" stroke="#292929" stroke-width="4" stroke-linecap="round" stroke-linejoin="round"/>
<path d="M18.0411 7.37315L21.3401 3.24939C22.5813 1.69804 24.8983 1.5729 26.3031 2.97772C28.403 5.0776 26.9223 8.6746 23.9526 8.6746H18.6666C17.995 8.6746 17.6215 7.89765 18.0411 7.37315Z" stroke="#292929" stroke-width="4" stroke-linecap="round" stroke-linejoin="round"/>
</svg>
