<svg width="30" height="30" viewBox="0 0 30 30" fill="none" xmlns="http://www.w3.org/2000/svg">
<path fill-rule="evenodd" clip-rule="evenodd" d="M30 15C30 23.2842 23.2842 30 15 30C6.71572 30 0 23.2842 0 15C0 6.71572 6.71572 0 15 0C23.2842 0 30 6.71572 30 15ZM19.5 10.5C19.5 12.9853 17.4853 15 15 15C12.5147 15 10.5 12.9853 10.5 10.5C10.5 8.01472 12.5147 6 15 6C17.4853 6 19.5 8.01472 19.5 10.5ZM15 27.75C17.676 27.75 20.1595 26.9256 22.2104 25.5168C23.1162 24.8946 23.5032 23.7093 22.9767 22.7448C21.885 20.7455 19.6353 19.5 14.9998 19.5C10.3645 19.5 8.11495 20.7453 7.02321 22.7448C6.49657 23.7093 6.88365 24.8945 7.78944 25.5167C9.84027 26.9255 12.3238 27.75 15 27.75Z" fill="#292929"/>
</svg>
