<svg width="25" height="25" viewBox="0 0 25 25" fill="none" xmlns="http://www.w3.org/2000/svg">
<g clip-path="url(#clip0_22_53)">
<path d="M11.5 24.5C15.2017 25.1026 19.0731 25.7734 21.8205 23.237C24.6017 20.6693 25.1641 16.328 24.9631 12.5619C24.7764 9.06434 24.337 5.4021 21.8205 2.94846C19.3213 0.511672 15.6309 -0.232095 12.1411 0.0600709C8.93336 0.328613 6.20107 2.14172 3.96659 4.44315C1.78141 6.6938 -0.0846148 9.43649 0.00296319 12.5619C0.0887529 15.6234 1.76625 18.3541 3.96659 20.5C6.16693 22.6459 8.49325 24.0106 11.5 24.5Z" fill="#292929"/>
<path d="M20 8.53396V17.2271C20 17.7917 19.5424 18.2499 18.9777 18.2499H16.5905V12.4546L12.4997 15.5236L8.40902 12.4546V18.2504H6.02231C5.45764 18.2504 5 17.7927 5 17.2281V17.2276V8.53446C5 7.68721 5.68671 7 6.53396 7C6.88106 7 7.20116 7.11553 7.45824 7.30959L7.45424 7.30659L12.4997 11.0912L17.5453 7.30659C17.7983 7.11503 18.1184 7 18.4655 7C19.3128 7 20 7.68671 20 8.53396Z" fill="white"/>
</g>
<defs>
<clipPath id="clip0_22_53">
<rect width="25" height="25" fill="white"/>
</clipPath>
</defs>
</svg>
