<svg width="28" height="28" viewBox="0 0 28 28" fill="none" xmlns="http://www.w3.org/2000/svg">
<path d="M15.1752 26.1153C16.8027 25.7682 18.1416 25.6142 19.9704 25.0527C21.7991 24.4912 23.151 23.364 24.5658 22.0763C25.9958 20.7748 26.493 18.7345 26.8947 16.8431C27.2934 14.9663 27.4963 12.9778 26.8847 11.1592C26.2886 9.38667 25.7337 8.09217 24.5658 6.63163C23.3993 5.17291 21.521 3.55385 19.9704 2.51273C18.3371 1.4162 15.9538 0.876301 14 1.10517C12.0515 1.33341 11.0079 2.48806 9.4972 3.73954C8.21146 4.80462 7.13035 6.05064 6.24595 7.46675C5.42207 8.78597 4.44787 9.76713 3.75417 11.1592C2.84948 12.9747 2.20119 14.8147 2.21052 16.8431C2.21951 18.7983 3.35643 20.337 4.55189 21.8842C5.76101 23.4491 6.72822 25.4888 8.60398 26.1153C10.4956 26.747 13.2247 26.5311 15.1752 26.1153Z" fill="#292929"/>
<path d="M15.5094 10.1882C15.5094 10.3375 15.5094 10.824 15.5094 11.5151H17.8855L17.6279 13.6333H15.5094C15.5094 16.8999 15.5094 21.2774 15.5094 21.2774H12.6973C12.6973 21.2774 12.6973 16.9579 12.6973 13.6333H11.2321V11.5151H12.6973C12.6973 10.6751 12.6973 10.0777 12.6973 9.91142C12.6973 9.11902 12.6376 8.74305 12.9743 8.12901C13.3112 7.515 14.2614 6.7034 15.9048 6.72294C17.5487 6.74319 18.2416 6.90133 18.2416 6.90133L17.8855 9.15881C17.8855 9.15881 16.8358 8.88164 16.3206 8.98042C15.8061 9.07923 15.5094 9.39619 15.5094 10.1882Z" fill="white" stroke="white" stroke-width="0.198364"/>
</svg>
