<svg width="16" height="16" viewBox="0 0 16 16" fill="none" xmlns="http://www.w3.org/2000/svg">
<path fill-rule="evenodd" clip-rule="evenodd" d="M8.00004 14.6667C4.85734 14.6667 3.28599 14.6667 2.30969 13.6903C1.33337 12.7141 1.33337 11.1427 1.33337 8.00001C1.33337 4.85731 1.33337 3.28596 2.30969 2.30966C3.28599 1.33334 4.85734 1.33334 8.00004 1.33334C11.1427 1.33334 12.7141 1.33334 13.6904 2.30966C14.6667 3.28596 14.6667 4.85731 14.6667 8.00001C14.6667 11.1427 14.6667 12.7141 13.6904 13.6903C12.7141 14.6667 11.1427 14.6667 8.00004 14.6667ZM8.00004 11.8333C8.27617 11.8333 8.50004 11.6095 8.50004 11.3333V7.33334C8.50004 7.05721 8.27617 6.83334 8.00004 6.83334C7.72391 6.83334 7.50004 7.05721 7.50004 7.33334V11.3333C7.50004 11.6095 7.72391 11.8333 8.00004 11.8333ZM8.00004 4.66668C8.36824 4.66668 8.66671 4.96516 8.66671 5.33334C8.66671 5.70153 8.36824 6.00001 8.00004 6.00001C7.63184 6.00001 7.33337 5.70153 7.33337 5.33334C7.33337 4.96516 7.63184 4.66668 8.00004 4.66668Z" fill="#373737"/>
</svg>
