<svg width="16" height="16" viewBox="0 0 16 16" fill="none" xmlns="http://www.w3.org/2000/svg">
<g clip-path="url(#clip0_101_553)">
<mask id="mask0_101_553" style="mask-type:luminance" maskUnits="userSpaceOnUse" x="0" y="0" width="16" height="16">
<path d="M16 0H0V16H16V0Z" fill="white"/>
</mask>
<g mask="url(#mask0_101_553)">
<path d="M11.3333 6.66667C12.4378 6.66667 13.3333 5.77124 13.3333 4.66667C13.3333 3.5621 12.4378 2.66667 11.3333 2.66667C10.2287 2.66667 9.33325 3.5621 9.33325 4.66667C9.33325 5.77124 10.2287 6.66667 11.3333 6.66667Z" stroke="#373737" stroke-width="1.5" stroke-linecap="round" stroke-linejoin="round"/>
<path d="M4.66663 13.3333C5.7712 13.3333 6.66663 12.4379 6.66663 11.3333C6.66663 10.2288 5.7712 9.33334 4.66663 9.33334C3.56206 9.33334 2.66663 10.2288 2.66663 11.3333C2.66663 12.4379 3.56206 13.3333 4.66663 13.3333Z" stroke="#373737" stroke-width="1.5" stroke-linecap="round" stroke-linejoin="round"/>
<path d="M9.33325 9.33334H13.3333V12.6667C13.3333 13.0349 13.0348 13.3333 12.6666 13.3333H9.99992C9.63172 13.3333 9.33325 13.0349 9.33325 12.6667V9.33334Z" stroke="#373737" stroke-width="1.5" stroke-linecap="round" stroke-linejoin="round"/>
<path d="M2.66663 2.66667H6.66663V6.00001C6.66663 6.36819 6.36815 6.66667 5.99996 6.66667H3.33329C2.96511 6.66667 2.66663 6.36819 2.66663 6.00001V2.66667Z" stroke="#373737" stroke-width="1.5" stroke-linecap="round" stroke-linejoin="round"/>
</g>
</g>
<defs>
<clipPath id="clip0_101_553">
<rect width="16" height="16" fill="white"/>
</clipPath>
</defs>
</svg>
