<svg width="17" height="17" viewBox="0 0 17 17" fill="none" xmlns="http://www.w3.org/2000/svg">
<path d="M15.2929 6.96291C15.1723 6.77853 15.0725 6.58135 14.9954 6.37499C14.9333 6.15998 14.893 5.93929 14.875 5.71624C14.8664 5.17442 14.7096 4.64529 14.4216 4.18624C14.0728 3.76699 13.6141 3.45306 13.097 3.27957C12.8883 3.19987 12.6888 3.09775 12.502 2.97499C12.3331 2.83523 12.1788 2.67858 12.0416 2.50749C11.7119 2.06695 11.2688 1.72421 10.7595 1.51582C10.2472 1.39446 9.71182 1.41158 9.20829 1.56541C8.75639 1.67161 8.28602 1.67161 7.83412 1.56541C7.31514 1.40249 6.76136 1.38534 6.23329 1.51582C5.72661 1.7253 5.28604 2.06797 4.95829 2.50749C4.81889 2.67894 4.66224 2.8356 4.49079 2.97499C4.30406 3.09775 4.10456 3.19987 3.89579 3.27957C3.37613 3.45189 2.91492 3.76591 2.56412 4.18624C2.28115 4.64674 2.1293 5.17577 2.12495 5.71624C2.10692 5.93929 2.06658 6.15998 2.00454 6.37499C1.92645 6.57645 1.8267 6.76883 1.70704 6.94874C1.38645 7.40604 1.19777 7.94268 1.16162 8.49999C1.20032 9.05241 1.38888 9.58382 1.70704 10.0371C1.8267 10.217 1.92645 10.4094 2.00454 10.6108C2.06273 10.8309 2.09833 11.0564 2.11079 11.2837C2.11939 11.8256 2.27617 12.3547 2.56412 12.8137C2.91299 13.233 3.37161 13.5469 3.8887 13.7204C4.09747 13.8001 4.29697 13.9022 4.4837 14.025C4.65515 14.1644 4.81181 14.321 4.9512 14.4925C5.2809 14.933 5.72403 15.2758 6.23329 15.4842C6.43285 15.5459 6.64064 15.5769 6.84954 15.5762C7.17502 15.5661 7.49825 15.5185 7.81287 15.4346C8.26477 15.3284 8.73514 15.3284 9.18704 15.4346C9.69941 15.5936 10.2453 15.6107 10.7666 15.4842C11.2733 15.2747 11.7139 14.932 12.0416 14.4925C12.181 14.321 12.3377 14.1644 12.5091 14.025C12.6959 13.9022 12.8954 13.8001 13.1041 13.7204C13.6212 13.5469 14.0798 13.233 14.4287 12.8137C14.7142 12.354 14.8685 11.8249 14.875 11.2837C14.8874 11.0564 14.923 10.8309 14.9812 10.6108C15.0593 10.4094 15.159 10.217 15.2787 10.0371C15.6019 9.58532 15.7954 9.05379 15.8383 8.49999C15.7996 7.94757 15.611 7.41616 15.2929 6.96291ZM6.72912 5.66666C6.93926 5.66666 7.14469 5.72897 7.31941 5.84572C7.49414 5.96247 7.63033 6.12841 7.71074 6.32256C7.79116 6.5167 7.8122 6.73034 7.77121 6.93644C7.73021 7.14255 7.62902 7.33186 7.48042 7.48046C7.33183 7.62905 7.14251 7.73025 6.93641 7.77124C6.7303 7.81224 6.51667 7.7912 6.32252 7.71078C6.12837 7.63036 5.96243 7.49418 5.84568 7.31945C5.72894 7.14472 5.66662 6.9393 5.66662 6.72916C5.66662 6.44736 5.77856 6.17711 5.97782 5.97786C6.17708 5.7786 6.44733 5.66666 6.72912 5.66666ZM10.2708 11.3333C10.0606 11.3333 9.85522 11.271 9.6805 11.1543C9.50577 11.0375 9.36958 10.8716 9.28917 10.6774C9.20875 10.4833 9.18771 10.2696 9.2287 10.0635C9.2697 9.85744 9.37089 9.66812 9.51949 9.51952C9.66808 9.37093 9.8574 9.26974 10.0635 9.22874C10.2696 9.18774 10.4832 9.20878 10.6774 9.2892C10.8715 9.36962 11.0375 9.5058 11.1542 9.68053C11.271 9.85526 11.3333 10.0607 11.3333 10.2708C11.3333 10.5526 11.2213 10.8229 11.0221 11.0221C10.8228 11.2214 10.5526 11.3333 10.2708 11.3333ZM11.1279 6.87791L6.87787 11.1279C6.81202 11.1943 6.73368 11.247 6.64736 11.283C6.56105 11.3189 6.46846 11.3374 6.37495 11.3374C6.28145 11.3374 6.18886 11.3189 6.10255 11.283C6.01623 11.247 5.93789 11.1943 5.87204 11.1279C5.80565 11.0621 5.75295 10.9837 5.71699 10.8974C5.68103 10.8111 5.66251 10.7185 5.66251 10.625C5.66251 10.5315 5.68103 10.4389 5.71699 10.3526C5.75295 10.2663 5.80565 10.1879 5.87204 10.1221L10.122 5.87207C10.2554 5.73869 10.4363 5.66376 10.625 5.66376C10.8136 5.66376 10.9945 5.73869 11.1279 5.87207C11.2613 6.00546 11.3362 6.18636 11.3362 6.37499C11.3362 6.56362 11.2613 6.74452 11.1279 6.87791Z" fill="#373737"/>
</svg>
